<svg xmlns="http://www.w3.org/2000/svg" xmlns:xlink="http://www.w3.org/1999/xlink" width="120" height="48" viewBox="0 0 120 48">
  <defs>
    <clipPath id="clip-osilogo">
      <rect width="120" height="48"/>
    </clipPath>
  </defs>
  <g id="osilogo" clip-path="url(#clip-osilogo)">
    <path id="Path_1" data-name="Path 1" d="M12.864-21.76H2.72V0H12.864c7.008,0,11.3-4.128,11.3-10.88S19.872-21.76,12.864-21.76ZM12.352-4.288H7.712V-17.472h4.64c4.288,0,6.72,2.368,6.72,6.592S16.64-4.288,12.352-4.288ZM45.344-6.752A9.453,9.453,0,0,0,45.408-8.1c0-5.184-3.456-8.48-8.864-8.48-5.568,0-9.28,3.392-9.28,8.48,0,5.344,3.744,8.48,10.08,8.48a13.332,13.332,0,0,0,7.3-1.92L43.2-5.152A10.449,10.449,0,0,1,37.6-3.52c-2.976,0-4.832-1.152-5.344-3.232Zm-8.832-6.016a4.1,4.1,0,0,1,4.224,2.944H32.32A4.041,4.041,0,0,1,36.512-12.768Zm20,13.152c5.376,0,8.256-1.824,8.256-5.248s-1.92-4.7-7.68-5.248c-3.072-.288-3.776-.544-3.776-1.5,0-.864,1.088-1.344,3.232-1.344a10.806,10.806,0,0,1,5.792,1.5l1.536-3.168a13.674,13.674,0,0,0-7.52-1.952c-4.928,0-7.872,1.92-7.872,5.216,0,3.424,1.888,4.7,7.712,5.248,3.072.288,3.744.544,3.744,1.5,0,.9-1.088,1.376-3.456,1.376a12.718,12.718,0,0,1-7.168-1.984l-1.6,3.328A15.764,15.764,0,0,0,56.512.384ZM70.624-18.752a2.505,2.505,0,0,0,2.688-2.56,2.505,2.505,0,0,0-2.688-2.56,2.505,2.505,0,0,0-2.688,2.56A2.505,2.505,0,0,0,70.624-18.752ZM68.224,0h4.8V-16.192h-4.8Zm21.6-16.192v2.88A6.635,6.635,0,0,0,84-16.576c-4.32,0-7.3,3.264-7.3,8.16S79.68-.256,84-.256A6.635,6.635,0,0,0,89.824-3.52v1.536c0,3.04-1.664,4.512-5.376,4.512a10.369,10.369,0,0,1-5.312-1.376L77.76,4.8a14.906,14.906,0,0,0,7.168,1.664c6.3,0,9.7-2.848,9.7-8.16v-14.5Zm0,9.792a5.366,5.366,0,0,1-4.288,2.176C83.1-4.224,81.6-5.76,81.6-8.416s1.5-4.192,3.936-4.192a5.366,5.366,0,0,1,4.288,2.176Zm20.448-10.176a7.354,7.354,0,0,0-6.208,3.264v-2.88h-4.8V0h4.8V-10.432a5.219,5.219,0,0,1,4.256-2.176c1.984,0,2.976.992,2.976,3.04V0h4.8V-10.56C116.1-14.336,113.952-16.576,110.272-16.576Z" transform="translate(-3 41)" fill="#fff"/>
    <path id="Wordmark" d="M194.5,166.3c0-3.579,2.541-6,6.307-6s6.307,2.421,6.307,6-2.539,6-6.307,6-6.307-2.421-6.307-6m11.437,0a5.134,5.134,0,1,0-5.13,4.944,4.767,4.767,0,0,0,5.13-4.944m4.287,4.244.581-.9a7.83,7.83,0,0,0,4.96,1.6c2.539,0,3.988-.852,3.988-2.37,0-1.345-1.056-1.856-4.074-2.062-3.6-.222-4.96-1.092-4.96-3.118,0-2.1,1.876-3.393,4.892-3.393a7.622,7.622,0,0,1,4.619,1.4l-.527.938a6.7,6.7,0,0,0-4.21-1.279c-2.2,0-3.6.886-3.6,2.286,0,1.345,1.04,1.872,4.074,2.061,3.579.222,4.96,1.09,4.96,3.12,0,2.233-1.876,3.477-5.182,3.477a8.572,8.572,0,0,1-5.523-1.756m14.533-10.04H225.9V172.1h-1.142ZM240.248,172.1l-3.683-4.96h-4.942v4.96h-1.142V160.506H237.4c2.351,0,3.681,1.193,3.681,3.307a3.08,3.08,0,0,1-3.136,3.308l3.7,4.976Zm-8.625-5.966h5.539c1.842,0,2.745-.75,2.745-2.319,0-1.551-.9-2.3-2.745-2.3h-5.539Zm13.713-5.625h1.142V172.1h-1.142Zm5.536,7.4v-7.4h1.142v7.228c0,2.317,1.449,3.511,4.176,3.511,2.744,0,4.194-1.194,4.194-3.511v-7.228h1.107v7.381c0,2.813-1.91,4.415-5.3,4.415-3.409,0-5.319-1.585-5.319-4.4m28.184,4.194h-1.142V161.751L272.922,172.1h-.938l-4.978-10.313V172.1H265.9V160.506h1.687l4.892,10.124,4.876-10.124h1.7Z" transform="translate(-194.5 -158.302)" fill="#fff"/>
  </g>
</svg>
